<svg width="459" height="203" viewBox="0 0 459 203" fill="none" xmlns="http://www.w3.org/2000/svg">
<path d="M242.593 39.9515C242.794 39.9696 243.027 39.9829 243.289 39.9925C243.553 40.0022 243.869 40.0058 244.233 40.0058C246.363 40.0058 247.943 39.4638 248.97 38.3771C249.999 37.2917 250.513 35.791 250.513 33.8774C250.513 31.8708 250.022 30.3519 249.039 29.3208C248.057 28.2909 246.501 27.7754 244.369 27.7754C244.078 27.7754 243.778 27.779 243.469 27.7887C243.158 27.7984 242.868 27.8213 242.593 27.8575V39.9515ZM254.91 33.8774C254.91 35.5338 254.655 36.979 254.146 38.2117C253.636 39.4456 252.912 40.4671 251.975 41.276C251.037 42.0873 249.894 42.6934 248.547 43.0979C247.199 43.5035 245.689 43.7064 244.014 43.7064C243.249 43.7064 242.357 43.6738 241.338 43.6098C240.317 43.5446 239.317 43.4118 238.334 43.2089V24.5723C239.317 24.3888 240.341 24.2644 241.405 24.1992C242.471 24.1352 243.386 24.1027 244.15 24.1027C245.771 24.1027 247.241 24.2874 248.562 24.6556C249.88 25.0239 251.013 25.6034 251.96 26.3942C252.907 27.1862 253.636 28.1992 254.146 29.4319C254.655 30.6658 254.91 32.1472 254.91 33.8774Z" fill="white"/>
<path d="M258.412 43.4585V24.3244H271.193V27.9416H262.671V31.6965H270.236V35.2304H262.671V39.8413H271.82V43.4585H258.412Z" fill="white"/>
<path d="M303.691 45.185V50.1714H286.648V24.3824H292.392V45.185H303.691Z" fill="white"/>
<path d="M307.304 24.4122H313.046V50.2011H307.304V24.4122ZM314.737 17.6389L308.684 22.8124L306.162 20.5414L311.371 14.5131L314.737 17.6389Z" fill="white"/>
<path d="M324.646 45.4618C324.917 45.4872 325.231 45.5077 325.587 45.5186C325.94 45.5307 326.364 45.5367 326.856 45.5367C329.725 45.5367 331.856 44.8063 333.241 43.343C334.627 41.8772 335.32 39.8549 335.32 37.2748C335.32 34.5716 334.659 32.5263 333.334 31.1354C332.009 29.7458 329.911 29.0516 327.039 29.0516C326.646 29.0516 326.242 29.0588 325.825 29.0697C325.407 29.083 325.015 29.1131 324.646 29.1626V45.4618ZM341.248 37.2748C341.248 39.5084 340.904 41.4558 340.217 43.1196C339.528 44.7809 338.553 46.1585 337.29 47.2487C336.026 48.3402 334.488 49.16 332.671 49.7045C330.855 50.2502 328.818 50.5231 326.561 50.5231C325.532 50.5231 324.327 50.4796 322.953 50.3927C321.579 50.3057 320.23 50.127 318.905 49.8542V24.7341C320.23 24.4854 321.61 24.3188 323.047 24.2318C324.482 24.1449 325.714 24.1027 326.745 24.1027C328.928 24.1027 330.91 24.3502 332.689 24.8452C334.469 25.3426 335.995 26.1237 337.273 27.1898C338.547 28.2571 339.528 29.6214 340.217 31.284C340.904 32.9465 341.248 34.9447 341.248 37.2748Z" fill="white"/>
<path d="M346.052 50.1702V24.3824H363.276V29.2553H351.792V34.3189H361.988V39.0795H351.792V45.2949H364.123V50.1702H346.052Z" fill="white"/>
<path d="M376.152 29.0528C375.734 29.0528 375.36 29.0649 375.028 29.0902C374.697 29.1144 374.385 29.1397 374.088 29.1638V36.1604H375.709C377.867 36.1604 379.414 35.8876 380.347 35.3419C381.28 34.7961 381.747 33.8653 381.747 32.5505C381.747 31.2852 381.274 30.3857 380.329 29.852C379.385 29.3196 377.992 29.0528 376.152 29.0528ZM375.82 24.1027C379.648 24.1027 382.58 24.7921 384.616 26.1684C386.653 27.5448 387.671 29.6842 387.671 32.5879C387.671 34.3989 387.261 35.8695 386.44 36.9983C385.617 38.1272 384.433 39.0134 382.887 39.6581C383.403 40.3041 383.943 41.0417 384.507 41.8724C385.071 42.7043 385.629 43.5724 386.182 44.4779C386.735 45.3834 387.267 46.3263 387.783 47.3055C388.298 48.2858 388.777 49.2481 389.218 50.1898H382.799C382.33 49.3471 381.856 48.4911 381.378 47.6218C380.896 46.7549 380.404 45.9098 379.898 45.0924C379.394 44.2726 378.895 43.4975 378.402 42.7659C377.91 42.0342 377.417 41.3701 376.923 40.7749H374.088V50.1898H368.348V24.7727C369.6 24.5252 370.894 24.3514 372.232 24.2511C373.568 24.1521 374.764 24.1027 375.82 24.1027Z" fill="white"/>
<path d="M392.903 50.1702V24.3824H410.13V29.2553H398.646V34.3189H408.842V39.0795H398.646V45.2949H410.977V50.1702H392.903Z" fill="white"/>
<path d="M422.157 45.7751C422.968 45.7751 423.636 45.7051 424.165 45.5699C424.691 45.4334 425.114 45.2475 425.434 45.0121C425.753 44.7754 425.973 44.4966 426.097 44.173C426.219 43.8518 426.281 43.4908 426.281 43.0948C426.281 42.2533 425.888 41.5506 425.103 40.9928C424.316 40.435 422.968 39.8338 421.054 39.1866C420.219 38.8884 419.384 38.5503 418.55 38.164C417.716 37.7788 416.969 37.2971 416.305 36.7128C415.643 36.1296 415.103 35.4221 414.687 34.5915C414.268 33.7596 414.061 32.749 414.061 31.5598C414.061 30.3669 414.281 29.296 414.722 28.341C415.166 27.386 415.79 26.571 416.601 25.9034C417.409 25.2321 418.391 24.719 419.543 24.3568C420.697 23.997 421.998 23.8171 423.447 23.8171C425.163 23.8171 426.649 24.0042 427.9 24.3761C429.151 24.748 430.183 25.1572 430.992 25.6028L429.337 30.181C428.624 29.8091 427.832 29.4808 426.96 29.1958C426.091 28.9097 425.041 28.7684 423.815 28.7684C422.44 28.7684 421.453 28.9592 420.851 29.3455C420.249 29.7283 419.949 30.3175 419.949 31.1119C419.949 31.584 420.06 31.98 420.281 32.3023C420.501 32.6247 420.815 32.9181 421.22 33.1765C421.625 33.4372 422.09 33.6751 422.619 33.884C423.145 34.0965 423.728 34.3114 424.365 34.5347C425.692 35.0334 426.844 35.5211 427.826 36.0065C428.806 36.4906 429.623 37.0533 430.274 37.6992C430.924 38.3439 431.408 39.0997 431.728 39.9678C432.047 40.8383 432.207 41.8923 432.207 43.1334C432.207 45.5385 431.373 47.4063 429.703 48.7319C428.035 50.06 425.519 50.7241 422.157 50.7241C421.029 50.7241 420.01 50.6552 419.103 50.5188C418.195 50.3824 417.391 50.2146 416.693 50.0166C415.993 49.8198 415.391 49.6072 414.888 49.3839C414.386 49.1605 413.963 48.9493 413.618 48.7512L415.238 44.138C415.999 44.5593 416.938 44.9372 418.053 45.2729C419.171 45.6061 420.539 45.7751 422.157 45.7751Z" fill="white"/>
<path d="M39.6739 30.2248C39.5461 30.6003 39.3562 31.1098 39.1102 31.7533C38.863 32.3992 38.5836 33.143 38.2672 33.9881C37.9531 34.8332 37.6008 35.7629 37.2115 36.7795C36.821 37.7961 36.4258 38.8597 36.0234 39.9753H43.3172C42.9279 38.8561 42.5506 37.7876 42.1852 36.7698C41.8186 35.7508 41.4711 34.8188 41.1415 33.9724C40.8131 33.1285 40.5229 32.3835 40.2745 31.74C40.0261 31.0965 39.8255 30.5918 39.6739 30.2248ZM46.5701 50.1714C46.2883 49.2755 45.9826 48.3556 45.6554 47.4102C45.3282 46.4673 45.0034 45.5255 44.6798 44.5898H34.7181C34.3969 45.5304 34.0733 46.4733 33.7497 47.4186C33.4261 48.364 33.1251 49.2828 32.8457 50.1714H26.8833C27.841 47.3933 28.7533 44.8252 29.6155 42.4685C30.4753 40.1118 31.3184 37.8914 32.1424 35.8076C32.9675 33.7237 33.7807 31.7449 34.5796 29.8723C35.3785 27.9985 36.212 26.1693 37.0718 24.3824H42.516C43.3542 26.1693 44.1794 27.9985 44.9938 29.8723C45.8058 31.7449 46.625 33.7237 47.4526 35.8076C48.2789 37.8914 49.1232 40.1118 49.9842 42.4685C50.8476 44.8252 51.7599 47.3933 52.7212 50.1714H46.5701Z" fill="white"/>
<path d="M66.7639 50.7241C62.6155 50.7241 59.4569 49.5578 57.286 47.2264C55.115 44.8938 54.0283 41.582 54.0283 37.2899C54.0283 35.1565 54.3591 33.2513 55.0219 31.5779C55.6846 29.9033 56.591 28.4883 57.7445 27.3353C58.8993 26.1811 60.2725 25.3057 61.8667 24.7117C63.4621 24.1165 65.1937 23.8171 67.0589 23.8171C68.1372 23.8171 69.12 23.898 70.0013 24.061C70.8862 24.2215 71.66 24.4063 72.3203 24.6188C72.9843 24.8288 73.5348 25.0462 73.979 25.2695C74.4197 25.4941 74.7373 25.6667 74.9344 25.7911L73.2793 30.4792C72.4923 30.0567 71.5788 29.6981 70.5375 29.4011C69.4938 29.1016 68.308 28.9531 66.9849 28.9531C66.1 28.9531 65.2354 29.1016 64.3888 29.4011C63.5421 29.6981 62.7934 30.1762 62.1438 30.833C61.493 31.4898 60.9711 32.341 60.5794 33.3817C60.1878 34.4248 59.9919 35.6902 59.9919 37.1776C59.9919 38.3693 60.1209 39.48 60.3764 40.5099C60.6356 41.5386 61.0511 42.426 61.6291 43.1685C62.2059 43.9134 62.9594 44.5038 63.892 44.9385C64.8246 45.3719 65.9531 45.5892 67.2798 45.5892C68.1122 45.5892 68.8609 45.5397 69.5248 45.4407C70.1876 45.3417 70.7751 45.2222 71.291 45.0869C71.8069 44.9493 72.2606 44.7948 72.6535 44.6197C73.044 44.4471 73.4022 44.2865 73.7211 44.1368L75.3022 48.7887C74.4937 49.2861 73.3521 49.7316 71.8809 50.1276C70.4073 50.5249 68.7021 50.7241 66.7639 50.7241Z" fill="white"/>
<path d="M90.2434 30.2248C90.1157 30.6003 89.9282 31.1098 89.681 31.7533C89.435 32.3992 89.1532 33.143 88.8379 33.9881C88.5239 34.8332 88.1704 35.7629 87.7811 36.7795C87.3918 37.7961 86.9965 38.8597 86.5941 39.9753H93.888C93.4987 38.8561 93.1202 37.7876 92.7547 36.7698C92.3881 35.7508 92.0406 34.8188 91.7111 33.9724C91.3827 33.1285 91.0937 32.3835 90.8453 31.74C90.5969 31.0965 90.3951 30.5918 90.2434 30.2248ZM97.1421 50.1714C96.8579 49.2755 96.5533 48.3556 96.2261 47.4102C95.9001 46.4673 95.5742 45.5255 95.2505 44.5898H85.2877C84.9665 45.5304 84.6429 46.4733 84.3205 47.4186C83.9956 48.364 83.6947 49.2828 83.4153 50.1714H77.4529C78.413 47.3933 79.3229 44.8252 80.1851 42.4685C81.0461 40.1118 81.888 37.8914 82.7131 35.8076C83.5383 33.7237 84.3503 31.7449 85.1504 29.8723C85.9505 27.9985 86.7816 26.1693 87.6426 24.3824H93.0855C93.9238 26.1693 94.749 27.9985 95.5634 29.8723C96.3766 31.7449 97.1958 33.7237 98.0222 35.8076C98.8485 37.8914 99.6928 40.1118 100.555 42.4685C101.418 44.8252 102.331 47.3933 103.292 50.1714H97.1421Z" fill="white"/>
<path d="M112.296 45.4595C112.566 45.4849 112.879 45.5054 113.235 45.5163C113.589 45.5284 114.013 45.5344 114.504 45.5344C117.376 45.5344 119.504 44.804 120.89 43.3406C122.277 41.8749 122.969 39.8526 122.969 37.2725C122.969 34.5693 122.308 32.524 120.982 31.1331C119.658 29.7435 117.56 29.0493 114.688 29.0493C114.295 29.0493 113.89 29.0565 113.473 29.0674C113.057 29.0806 112.665 29.1108 112.296 29.1603V45.4595ZM128.896 37.2725C128.896 39.5061 128.552 41.4535 127.865 43.1173C127.177 44.7786 126.203 46.1562 124.94 47.2464C123.675 48.3378 122.136 49.1576 120.319 49.7021C118.503 50.2479 116.467 50.5207 114.21 50.5207C113.18 50.5207 111.976 50.4773 110.604 50.3903C109.228 50.3034 107.879 50.1247 106.554 49.8518V24.7318C107.879 24.483 109.259 24.3165 110.695 24.2295C112.13 24.1426 113.364 24.1003 114.394 24.1003C116.577 24.1003 118.559 24.3478 120.339 24.8428C122.118 25.3403 123.644 26.1214 124.921 27.1875C126.197 28.2548 127.177 29.6191 127.865 31.2816C128.552 32.9442 128.896 34.9423 128.896 37.2725Z" fill="white"/>
<path d="M133.701 50.1702V24.3824H150.926V29.2553H139.443V34.3189H149.638V39.0795H139.443V45.2949H151.773V50.1702H133.701Z" fill="white"/>
<path d="M162.828 24.3824C163.271 25.201 163.781 26.2128 164.36 27.4153C164.938 28.619 165.54 29.9218 166.168 31.3235C166.795 32.7252 167.416 34.1571 168.031 35.6216C168.648 37.0849 169.224 38.4625 169.766 39.7508C170.309 38.4625 170.887 37.0849 171.502 35.6216C172.115 34.1571 172.737 32.7252 173.364 31.3235C173.993 29.9218 174.596 28.619 175.174 27.4153C175.752 26.2128 176.263 25.201 176.704 24.3824H181.931C182.176 26.0933 182.404 28.0105 182.612 30.1318C182.821 32.2531 183.005 34.4614 183.165 36.7566C183.324 39.0505 183.472 41.3517 183.607 43.659C183.74 45.9662 183.857 48.1382 183.955 50.1714H178.361C178.288 47.6661 178.189 44.9375 178.067 41.9844C177.944 39.0324 177.76 36.0551 177.514 33.0536C177.071 34.0943 176.579 35.2486 176.038 36.5139C175.496 37.7792 174.961 39.0445 174.431 40.3098C173.902 41.5751 173.392 42.7848 172.9 43.9379C172.407 45.0921 171.989 46.0785 171.644 46.8971H167.631C167.286 46.0785 166.868 45.0921 166.376 43.9379C165.884 42.7848 165.373 41.5751 164.843 40.3098C164.314 39.0445 163.779 37.7792 163.238 36.5139C162.696 35.2486 162.204 34.0943 161.761 33.0536C161.515 36.0551 161.332 39.0324 161.209 41.9844C161.086 44.9375 160.988 47.6661 160.914 50.1714H155.32C155.418 48.1382 155.535 45.9662 155.669 43.659C155.804 41.3517 155.951 39.0505 156.111 36.7566C156.27 34.4614 156.455 32.2531 156.663 30.1318C156.872 28.0105 157.099 26.0933 157.345 24.3824H162.828Z" fill="white"/>
<path d="M194.786 24.3824H189.044V50.1714H194.786V24.3824Z" fill="white"/>
<path d="M210.895 30.2248C210.766 30.6003 210.578 31.1098 210.332 31.7533C210.085 32.3992 209.806 33.143 209.489 33.9881C209.174 34.8332 208.821 35.7629 208.431 36.7795C208.043 37.7961 207.648 38.8597 207.245 39.9753H214.541C214.149 38.8561 213.772 37.7876 213.405 36.7698C213.039 35.7508 212.692 34.8188 212.361 33.9724C212.034 33.1285 211.745 32.3835 211.497 31.74C211.248 31.0965 211.048 30.5918 210.895 30.2248ZM217.792 50.1714C217.509 49.2755 217.204 48.3556 216.878 47.4102C216.55 46.4673 216.226 45.5255 215.901 44.5898H205.939C205.618 45.5304 205.293 46.4733 204.971 47.4186C204.647 48.364 204.345 49.2828 204.067 50.1714H198.104C199.064 47.3933 199.974 44.8252 200.835 42.4685C201.697 40.1118 202.541 37.8914 203.364 35.8076C204.19 33.7237 205.002 31.7449 205.801 29.8723C206.601 27.9985 207.432 26.1693 208.294 24.3824H213.737C214.575 26.1693 215.4 27.9985 216.215 29.8723C217.028 31.7449 217.847 33.7237 218.672 35.8076C219.5 37.8914 220.344 40.1118 221.206 42.4685C222.069 44.8252 222.981 47.3933 223.943 50.1714H217.792Z" fill="white"/>
<path d="M56.0225 137.725C51.1313 137.725 46.9112 137.029 43.3598 135.641C39.8083 134.254 36.8779 132.323 34.5672 129.85C32.2553 127.378 30.5477 124.432 29.4419 121.01C28.3361 117.591 27.7844 113.814 27.7844 109.682V65.89H43.4612V108.361C43.4612 111.205 43.7777 113.629 44.4154 115.625C45.0507 117.625 45.9224 119.25 47.0282 120.503C48.134 121.756 49.4738 122.655 51.0477 123.196C52.6216 123.738 54.3471 124.008 56.2232 124.008C60.0421 124.008 63.1397 122.824 65.5196 120.451C67.896 118.081 69.0866 114.051 69.0866 108.361V65.89H84.7634V109.682C84.7634 113.814 84.1938 117.607 83.0558 121.061C81.9154 124.516 80.1743 127.48 77.8302 129.952C75.4837 132.426 72.503 134.338 68.886 135.693C65.2677 137.046 60.9795 137.725 56.0225 137.725Z" fill="white"/>
<path d="M115.134 105.584V123.772C116.272 123.907 117.512 124.01 118.853 124.076C120.191 124.145 121.666 124.177 123.273 124.177C127.963 124.177 131.748 123.501 134.63 122.145C137.51 120.792 138.95 118.286 138.95 114.627C138.95 111.376 137.745 109.055 135.333 107.668C132.922 106.28 129.47 105.584 124.982 105.584H115.134ZM115.134 93.4938H122.772C127.595 93.4938 131.045 92.8672 133.122 91.614C135.198 90.3607 136.237 88.3469 136.237 85.5676C136.237 82.7231 135.165 80.7261 133.021 79.5743C130.878 78.4225 127.729 77.8466 123.575 77.8466C122.234 77.8466 120.794 77.8647 119.254 77.8973C117.712 77.9323 116.34 78.0168 115.134 78.1508V93.4938ZM123.073 137.183C119.254 137.183 115.452 137.065 111.667 136.828C107.881 136.589 103.945 136.032 99.8584 135.151V66.873C103.074 66.2633 106.592 65.8069 110.41 65.5014C114.23 65.1972 117.779 65.0438 121.063 65.0438C125.485 65.0438 129.555 65.3662 133.273 66.0097C136.992 66.6544 140.19 67.7543 142.871 69.3118C145.549 70.8705 147.644 72.9182 149.151 75.4584C150.659 77.9987 151.412 81.133 151.412 84.8576C151.412 90.4803 148.731 94.9161 143.372 98.1662C147.794 99.8614 150.809 102.164 152.418 105.077C154.025 107.989 154.829 111.273 154.829 114.933C154.829 122.316 152.166 127.871 146.84 131.595C141.513 135.321 133.591 137.183 123.073 137.183Z" fill="white"/>
<path d="M194.644 137.725C189.753 137.725 185.533 137.029 181.981 135.641C178.43 134.254 175.501 132.323 173.189 129.851C170.878 127.378 169.169 124.432 168.063 121.01C166.958 117.591 166.406 113.814 166.406 109.682V65.89H182.083V108.361C182.083 111.205 182.399 113.629 183.037 115.626C183.672 117.625 184.544 119.25 185.65 120.503C186.756 121.756 188.095 122.655 189.669 123.196C191.243 123.738 192.969 124.008 194.845 124.008C198.664 124.008 201.762 122.824 204.141 120.451C206.518 118.081 207.708 114.051 207.708 108.361V65.89H223.385V109.682C223.385 113.814 222.815 117.607 221.677 121.061C220.537 124.516 218.796 127.48 216.452 129.952C214.105 132.426 211.126 134.338 207.506 135.693C203.889 137.046 199.601 137.725 194.644 137.725Z" fill="white"/>
<path d="M285.063 136.301C280.573 128.241 275.717 120.282 270.492 112.424C265.265 104.567 259.704 97.1507 253.81 90.1722V136.301H238.334V65.89H251.097C253.307 68.1248 255.752 70.8679 258.433 74.1193C261.112 77.3707 263.842 80.843 266.623 84.5339C269.402 88.2272 272.165 92.052 274.913 96.0145C277.66 99.9783 280.239 103.787 282.65 107.446V65.89H298.228V136.301H285.063Z" fill="white"/>
<path d="M366.063 65.89V79.4026H345.059V136.301H329.384V79.4026H308.381V65.89H366.063Z" fill="white"/>
<path d="M403.319 137.725C398.426 137.725 394.206 137.029 390.656 135.641C387.104 134.254 384.174 132.323 381.862 129.851C379.551 127.378 377.843 124.432 376.737 121.01C375.632 117.591 375.079 113.814 375.079 109.682V65.89H390.755V108.361C390.755 111.205 391.074 113.629 391.71 115.626C392.347 117.625 393.219 119.25 394.324 120.503C395.43 121.756 396.77 122.655 398.344 123.196C399.917 123.738 401.643 124.008 403.519 124.008C407.337 124.008 410.436 122.824 412.815 120.451C415.192 118.081 416.382 114.051 416.382 108.361V65.89H432.058V109.682C432.058 113.814 431.49 117.607 430.352 121.061C429.21 124.516 427.47 127.48 425.125 129.952C422.779 132.426 419.799 134.338 416.181 135.693C412.564 137.046 408.276 137.725 403.319 137.725Z" fill="white"/>
<path d="M49.6006 174.485V180.142H30.2649V150.882H36.7802V174.485H49.6006Z" fill="white"/>
<path d="M53.8057 180.142V150.882H73.3503V156.413H60.321V162.155H71.8899V167.561H60.321V174.611H74.3104V180.142H53.8057Z" fill="white"/>
<path d="M90.7225 157.511C90.5768 157.936 90.3631 158.514 90.0836 159.246C89.803 159.977 89.4854 160.821 89.1283 161.781C88.7701 162.74 88.37 163.795 87.9282 164.948C87.4863 166.101 87.0374 167.31 86.5812 168.574H94.8579C94.4148 167.306 93.9849 166.091 93.5717 164.937C93.1562 163.78 92.7609 162.723 92.3883 161.763C92.0146 160.806 91.6874 159.96 91.4044 159.23C91.1225 158.498 90.8956 157.927 90.7225 157.511ZM98.549 180.142C98.2266 179.127 97.8803 178.081 97.5113 177.011C97.1399 175.94 96.7697 174.871 96.4031 173.809H85.0992C84.7338 174.877 84.3684 175.947 84.0006 177.02C83.6328 178.091 83.2913 179.134 82.976 180.142H76.21C77.299 176.99 78.332 174.077 79.3088 171.402C80.2868 168.728 81.2433 166.208 82.1783 163.844C83.1146 161.479 84.0352 159.236 84.9428 157.11C85.8516 154.985 86.7937 152.908 87.7706 150.882H93.9467C94.8973 152.908 95.8347 154.985 96.7577 157.11C97.6808 159.236 98.6111 161.479 99.5485 163.844C100.486 166.208 101.444 168.728 102.422 171.402C103.401 174.077 104.435 176.99 105.526 180.142H98.549Z" fill="white"/>
<path d="M115.66 174.797C115.967 174.824 116.321 174.847 116.726 174.861C117.127 174.875 117.608 174.882 118.166 174.882C121.423 174.882 123.838 174.052 125.411 172.391C126.984 170.73 127.772 168.436 127.772 165.508C127.772 162.441 127.02 160.118 125.516 158.542C124.013 156.965 121.633 156.176 118.374 156.176C117.928 156.176 117.47 156.184 116.996 156.198C116.523 156.211 116.079 156.248 115.66 156.304V174.797ZM134.494 165.508C134.494 168.041 134.105 170.252 133.326 172.137C132.546 174.022 131.439 175.586 130.006 176.824C128.572 178.063 126.825 178.993 124.764 179.61C122.703 180.229 120.393 180.539 117.832 180.539C116.663 180.539 115.298 180.49 113.739 180.392C112.18 180.293 110.649 180.09 109.146 179.78V151.279C110.649 150.998 112.214 150.807 113.843 150.709C115.472 150.61 116.872 150.561 118.041 150.561C120.517 150.561 122.766 150.842 124.785 151.405C126.803 151.969 128.536 152.855 129.985 154.066C131.432 155.276 132.546 156.825 133.326 158.711C134.105 160.596 134.494 162.863 134.494 165.508Z" fill="white"/>
<path d="M139.979 180.142V150.882H159.523V156.413H146.491V162.155H158.062V167.561H146.491V174.611H160.483V180.142H139.979Z" fill="white"/>
<path d="M174.136 156.176C173.663 156.176 173.238 156.191 172.863 156.219C172.486 156.248 172.13 156.275 171.797 156.303V164.241H173.635C176.084 164.241 177.839 163.932 178.895 163.312C179.954 162.692 180.482 161.637 180.482 160.145C180.482 158.711 179.947 157.69 178.877 157.084C177.802 156.479 176.225 156.176 174.136 156.176ZM173.761 150.561C178.102 150.561 181.429 151.342 183.741 152.904C186.053 154.467 187.206 156.895 187.206 160.187C187.206 162.242 186.742 163.911 185.807 165.192C184.875 166.473 183.533 167.48 181.776 168.21C182.364 168.942 182.974 169.781 183.615 170.722C184.257 171.665 184.888 172.652 185.515 173.678C186.143 174.707 186.749 175.775 187.332 176.887C187.918 177.999 188.46 179.091 188.962 180.159H181.677C181.147 179.203 180.608 178.232 180.063 177.246C179.518 176.262 178.961 175.304 178.389 174.375C177.815 173.446 177.247 172.566 176.69 171.737C176.129 170.906 175.572 170.153 175.011 169.478H171.797V180.159H165.281V151.322C166.701 151.039 168.169 150.842 169.687 150.729C171.204 150.618 172.563 150.561 173.761 150.561Z" fill="white"/>
<path d="M201.105 175.135C202.025 175.135 202.783 175.059 203.382 174.903C203.981 174.75 204.461 174.537 204.823 174.27C205.184 174.004 205.434 173.686 205.575 173.32C205.713 172.956 205.783 172.545 205.783 172.095C205.783 171.139 205.337 170.344 204.446 169.71C203.556 169.076 202.025 168.394 199.854 167.663C198.907 167.325 197.96 166.937 197.014 166.501C196.067 166.065 195.218 165.517 194.466 164.853C193.715 164.193 193.101 163.39 192.629 162.447C192.153 161.505 191.917 160.357 191.917 159.006C191.917 157.655 192.168 156.438 192.668 155.354C193.171 154.271 193.882 153.348 194.8 152.588C195.72 151.828 196.831 151.244 198.141 150.836C199.45 150.428 200.925 150.224 202.568 150.224C204.517 150.224 206.201 150.435 207.622 150.858C209.04 151.279 210.211 151.744 211.129 152.251L209.25 157.444C208.442 157.021 207.544 156.648 206.556 156.324C205.568 156.001 204.377 155.84 202.986 155.84C201.425 155.84 200.306 156.058 199.623 156.495C198.943 156.931 198.601 157.599 198.601 158.5C198.601 159.035 198.725 159.485 198.976 159.851C199.227 160.217 199.581 160.548 200.041 160.842C200.501 161.138 201.029 161.406 201.628 161.645C202.226 161.884 202.888 162.131 203.612 162.383C205.115 162.947 206.424 163.502 207.537 164.051C208.651 164.6 209.576 165.242 210.314 165.972C211.052 166.705 211.603 167.564 211.964 168.549C212.327 169.535 212.507 170.731 212.507 172.138C212.507 174.869 211.56 176.988 209.667 178.493C207.773 179.999 204.92 180.752 201.105 180.752C199.825 180.752 198.669 180.673 197.64 180.518C196.609 180.364 195.698 180.174 194.904 179.95C194.111 179.724 193.429 179.485 192.857 179.231C192.288 178.978 191.805 178.74 191.417 178.513L193.255 173.278C194.117 173.756 195.183 174.186 196.449 174.566C197.716 174.945 199.269 175.135 201.105 175.135Z" fill="white"/>
<path d="M239.087 157.511C238.941 157.936 238.729 158.514 238.448 159.246C238.168 159.977 237.85 160.821 237.493 161.781C237.136 162.74 236.735 163.795 236.292 164.948C235.851 166.101 235.402 167.309 234.947 168.573H243.222C242.779 167.306 242.35 166.091 241.936 164.937C241.52 163.78 241.125 162.723 240.753 161.763C240.379 160.805 240.052 159.96 239.77 159.23C239.487 158.498 239.26 157.927 239.087 157.511ZM246.913 180.142C246.591 179.127 246.245 178.081 245.876 177.01C245.504 175.94 245.135 174.871 244.767 173.809H233.463C233.099 174.877 232.733 175.947 232.365 177.02C231.998 178.091 231.657 179.134 231.34 180.142H224.574C225.663 176.99 226.696 174.077 227.674 171.402C228.651 168.728 229.609 166.208 230.543 163.844C231.479 161.479 232.401 159.236 233.307 157.11C234.216 154.985 235.158 152.908 236.136 150.882H242.311C243.262 152.908 244.2 154.985 245.122 157.11C246.045 159.236 246.977 161.479 247.913 163.844C248.85 166.208 249.809 168.728 250.786 171.402C251.765 174.077 252.8 176.99 253.892 180.142H246.913Z" fill="white"/>
<path d="M269.742 180.75C265.036 180.75 261.452 179.427 258.989 176.782C256.524 174.134 255.293 170.378 255.293 165.508C255.293 163.087 255.669 160.927 256.42 159.026C257.171 157.127 258.202 155.522 259.511 154.214C260.818 152.905 262.378 151.91 264.187 151.235C265.997 150.561 267.961 150.224 270.077 150.224C271.301 150.224 272.415 150.314 273.418 150.497C274.42 150.68 275.296 150.893 276.049 151.13C276.8 151.371 277.427 151.616 277.926 151.869C278.428 152.123 278.79 152.321 279.012 152.461L277.134 157.782C276.243 157.302 275.205 156.893 274.023 156.556C272.84 156.219 271.496 156.05 269.993 156.05C268.991 156.05 268.009 156.219 267.048 156.556C266.088 156.893 265.238 157.436 264.501 158.183C263.763 158.927 263.172 159.893 262.727 161.074C262.281 162.257 262.058 163.693 262.058 165.381C262.058 166.732 262.205 167.992 262.496 169.16C262.79 170.328 263.262 171.334 263.917 172.179C264.57 173.023 265.427 173.692 266.485 174.185C267.543 174.677 268.822 174.924 270.327 174.924C271.273 174.924 272.123 174.868 272.874 174.755C273.627 174.642 274.295 174.508 274.879 174.354C275.463 174.199 275.978 174.023 276.425 173.825C276.87 173.629 277.273 173.446 277.636 173.277L279.432 178.554C278.513 179.117 277.219 179.625 275.547 180.073C273.878 180.523 271.942 180.75 269.742 180.75Z" fill="white"/>
<path d="M296.35 157.511C296.204 157.936 295.99 158.514 295.711 159.246C295.429 159.977 295.113 160.821 294.755 161.781C294.397 162.74 293.997 163.795 293.555 164.948C293.114 166.101 292.665 167.309 292.208 168.573H300.485C300.042 167.306 299.612 166.091 299.198 164.937C298.783 163.78 298.388 162.723 298.014 161.763C297.642 160.805 297.313 159.96 297.031 159.23C296.75 158.498 296.522 157.927 296.35 157.511ZM304.175 180.142C303.854 179.127 303.507 178.081 303.137 177.01C302.767 175.94 302.396 174.871 302.03 173.809H290.726C290.361 174.877 289.994 175.947 289.628 177.02C289.259 178.091 288.918 179.134 288.602 180.142H281.836C282.926 176.99 283.959 174.077 284.936 171.402C285.913 168.728 286.869 166.208 287.804 163.844C288.742 161.479 289.662 159.236 290.57 157.11C291.479 154.985 292.421 152.908 293.398 150.882H299.574C300.524 152.908 301.462 154.985 302.384 157.11C303.308 159.236 304.238 161.479 305.174 163.844C306.113 166.208 307.07 168.728 308.049 171.402C309.028 174.077 310.062 176.99 311.152 180.142H304.175Z" fill="white"/>
<path d="M321.403 174.797C321.709 174.824 322.063 174.847 322.468 174.861C322.871 174.875 323.351 174.882 323.908 174.882C327.166 174.882 329.581 174.053 331.154 172.391C332.727 170.73 333.514 168.436 333.514 165.508C333.514 162.441 332.762 160.119 331.258 158.542C329.756 156.965 327.376 156.177 324.117 156.177C323.672 156.177 323.212 156.184 322.739 156.198C322.265 156.212 321.821 156.248 321.403 156.305V174.797ZM340.237 165.508C340.237 168.041 339.848 170.252 339.069 172.138C338.288 174.022 337.181 175.586 335.748 176.825C334.315 178.063 332.567 178.993 330.507 179.61C328.446 180.229 326.135 180.54 323.575 180.54C322.405 180.54 321.041 180.49 319.482 180.392C317.923 180.293 316.391 180.091 314.888 179.78V151.28C316.391 150.998 317.958 150.807 319.587 150.71C321.214 150.611 322.614 150.561 323.784 150.561C326.261 150.561 328.509 150.842 330.527 151.405C332.547 151.969 334.28 152.855 335.728 154.066C337.175 155.276 338.288 156.825 339.069 158.711C339.848 160.597 340.237 162.863 340.237 165.508Z" fill="white"/>
<path d="M345.716 180.142V150.882H365.261V156.413H352.23V162.155H363.798V167.561H352.23V174.611H366.221V180.142H345.716Z" fill="white"/>
<path d="M378.634 150.882C379.136 151.812 379.714 152.959 380.371 154.323C381.028 155.689 381.711 157.166 382.424 158.757C383.134 160.348 383.839 161.973 384.537 163.634C385.235 165.296 385.892 166.857 386.507 168.32C387.119 166.857 387.776 165.296 388.473 163.634C389.171 161.973 389.877 160.348 390.588 158.757C391.3 157.166 391.984 155.689 392.639 154.323C393.295 152.959 393.876 151.812 394.377 150.882H400.307C400.587 152.824 400.844 154.998 401.081 157.406C401.316 159.812 401.525 162.318 401.707 164.921C401.887 167.526 402.054 170.136 402.209 172.753C402.361 175.371 402.493 177.835 402.605 180.142H396.258C396.173 177.3 396.062 174.203 395.923 170.853C395.783 167.505 395.575 164.127 395.297 160.72C394.794 161.902 394.235 163.212 393.621 164.646C393.006 166.083 392.399 167.517 391.798 168.954C391.197 170.389 390.619 171.761 390.06 173.071C389.502 174.38 389.026 175.499 388.636 176.427H384.084C383.692 175.499 383.218 174.38 382.659 173.071C382.1 171.761 381.521 170.389 380.92 168.954C380.32 167.517 379.712 166.083 379.099 164.646C378.484 163.212 377.925 161.902 377.423 160.72C377.144 164.127 376.935 167.505 376.797 170.853C376.657 174.203 376.546 177.3 376.463 180.142H370.115C370.226 177.835 370.357 175.371 370.511 172.753C370.664 170.136 370.831 167.526 371.012 164.921C371.193 162.318 371.402 159.812 371.638 157.406C371.875 154.998 372.133 152.824 372.411 150.882H378.634Z" fill="white"/>
<path d="M418.365 162.883C419.534 160.89 420.65 158.895 421.711 156.902C422.769 154.91 423.744 152.901 424.638 150.882H431.82C430.232 154.034 428.59 157.087 426.893 160.042C425.194 162.999 423.398 165.969 421.505 168.953V180.141H414.99V169.037C413.096 166.053 411.294 163.068 409.583 160.087C407.869 157.101 406.22 154.034 404.633 150.882H412.192C413.082 152.901 414.041 154.91 415.07 156.902C416.098 158.895 417.197 160.89 418.365 162.883Z" fill="white"/>
</svg>
