<?xml version="1.0" standalone="no"?>
<!DOCTYPE svg PUBLIC "-//W3C//DTD SVG 20010904//EN"
 "http://www.w3.org/TR/2001/REC-SVG-20010904/DTD/svg10.dtd">
<svg version="1.0" xmlns="http://www.w3.org/2000/svg"
 width="675.000000pt" height="902.000000pt" viewBox="0 0 675.000000 902.000000"
 preserveAspectRatio="xMidYMid meet">
<metadata>
Created by potrace 1.16, written by Peter Selinger 2001-2019
</metadata>
<g transform="translate(0.000000,902.000000) scale(0.100000,-0.100000)"
fill="#000000" stroke="none">
<path d="M3325 7934 c-13 -33 -16 -34 -37 -22 l-23 13 23 3 c13 2 21 9 19 15
-7 22 -51 18 -82 -7 l-30 -24 27 -12 c15 -7 29 -18 32 -25 4 -12 -52 -62 -66
-57 -5 1 -8 -9 -8 -23 0 -29 -38 -58 -72 -53 -19 2 -25 12 -32 51 -12 61 -1
75 44 57 20 -8 35 -9 41 -3 12 12 -15 37 -60 52 -27 9 -36 8 -45 -3 -17 -22
-66 -32 -66 -13 0 8 -7 20 -15 27 -10 8 -13 21 -9 33 6 18 3 19 -38 13 -76
-11 -134 -38 -130 -60 3 -15 10 -17 42 -12 43 7 61 -7 30 -24 -26 -14 -25 -28
1 -56 l22 -23 -42 -17 c-40 -16 -52 -36 -30 -49 5 -4 37 14 69 39 49 38 97 66
116 66 2 0 4 -13 4 -30 0 -31 14 -50 63 -85 18 -13 31 -35 36 -55 6 -31 11
-35 49 -43 25 -5 62 -4 86 1 38 8 45 6 55 -10 16 -26 7 -34 -24 -20 -35 16
-55 15 -55 -2 0 -9 15 -17 39 -21 50 -8 72 -30 39 -39 -13 -3 -31 -19 -40 -36
l-18 -32 33 2 c50 3 54 0 27 -15 l-25 -14 33 -1 c40 0 50 21 28 55 -9 13 -16
27 -16 30 0 3 24 5 54 5 30 0 61 3 70 6 24 9 19 43 -8 56 -27 12 -43 38 -23
38 14 0 77 -63 126 -128 35 -45 76 -72 111 -72 24 0 25 4 4 36 -22 33 -13 39
40 25 65 -16 69 -15 52 17 -7 15 -17 66 -21 114 -7 85 -8 88 -30 82 -30 -7
-41 12 -21 35 25 27 20 44 -11 38 -15 -3 -37 0 -49 5 -13 6 -30 8 -38 5 -24
-9 -31 -4 -28 20 3 18 -2 22 -30 25 -25 2 -36 10 -48 33 -13 27 -19 30 -45 24
-47 -10 -60 -10 -79 4 -16 11 -16 15 -1 49 18 44 18 48 5 48 -5 0 -16 -16 -25
-36z"/>
<path d="M2617 7934 c4 -12 -4 -26 -27 -44 -19 -16 -30 -32 -26 -38 11 -18 41
-14 61 8 10 11 26 20 36 20 15 0 39 38 27 43 -1 1 -13 8 -25 15 -32 17 -54 16
-46 -4z"/>
<path d="M2730 7870 c0 -5 11 -17 25 -26 14 -9 25 -19 25 -23 0 -4 -28 -5 -62
-3 -35 2 -79 0 -98 -6 l-35 -9 28 -12 c35 -14 72 -14 98 0 17 8 24 6 40 -15
24 -30 43 -34 34 -7 -4 13 0 20 15 24 29 7 25 21 -15 56 -36 32 -55 39 -55 21z"/>
<path d="M3716 7862 c-2 -4 -2 -18 -1 -32 1 -17 7 -24 19 -22 11 2 16 -4 16
-18 0 -33 22 -18 37 25 7 21 12 39 11 40 -9 7 -78 12 -82 7z"/>
<path d="M2584 7758 c-9 -14 31 -48 58 -48 14 0 18 5 14 16 -3 9 -6 22 -6 30
0 17 -56 19 -66 2z"/>
<path d="M3931 7734 c-9 -21 -17 -25 -37 -21 -34 6 -27 -4 29 -47 42 -32 50
-35 70 -24 19 11 20 13 4 16 -13 3 -15 10 -11 29 6 22 4 24 -15 18 -19 -6 -21
-4 -16 18 9 34 -9 42 -24 11z"/>
<path d="M4443 7696 c13 -32 -3 -48 -47 -44 -38 3 -41 1 -44 -26 -2 -17 4 -36
15 -50 11 -11 27 -33 36 -48 19 -30 43 -39 33 -12 -4 11 1 22 14 31 43 30 17
62 -31 38 -24 -13 -30 -13 -27 -3 17 49 148 49 148 -1 0 -23 31 -51 56 -51 10
0 32 12 47 25 36 32 29 61 -20 82 -19 8 -37 23 -40 34 -4 16 -14 19 -55 19
-27 0 -59 5 -70 11 -18 10 -20 9 -15 -5z"/>
<path d="M2667 7624 c-16 -16 -5 -32 31 -47 34 -15 64 -21 85 -18 5 0 2 8 -7
16 -8 9 -13 21 -10 28 2 7 -6 12 -23 13 -16 1 -37 4 -48 8 -11 4 -24 4 -28 0z"/>
<path d="M4060 7600 c0 -16 47 -60 63 -60 25 0 25 11 -3 40 -28 30 -60 40 -60
20z"/>
<path d="M4670 7535 c0 -8 -11 -17 -24 -21 -19 -4 -26 -14 -28 -37 -2 -21 -9
-33 -20 -35 -15 -3 -17 2 -12 27 5 24 3 31 -9 31 -22 0 -37 -23 -30 -48 4 -18
2 -21 -11 -16 -9 3 -16 2 -16 -3 0 -20 37 -43 68 -43 24 0 35 6 46 28 8 15 30
42 50 61 34 33 35 36 19 53 -20 22 -33 23 -33 3z"/>
<path d="M4354 7494 c3 -9 6 -17 6 -19 0 -3 17 -16 37 -29 27 -19 40 -23 50
-14 18 15 16 28 -5 28 -10 0 -33 11 -52 25 -40 29 -44 30 -36 9z"/>
<path d="M2830 7484 c-8 -9 -23 -14 -37 -11 -19 3 -23 0 -23 -19 0 -30 17 -31
47 -2 26 25 40 19 24 -10 -16 -30 -14 -42 8 -42 43 0 50 49 12 84 -17 15 -19
15 -31 0z"/>
<path d="M4770 7461 c0 -6 5 -11 11 -11 7 0 9 -10 5 -25 -6 -24 -5 -25 43 -25
27 0 53 5 56 10 3 6 -4 10 -17 10 -15 0 -27 8 -33 23 -10 23 -65 38 -65 18z"/>
<path d="M4820 7366 c0 -22 48 -40 82 -29 40 12 22 31 -35 39 -40 6 -47 4 -47
-10z"/>
<path d="M3687 7364 c-3 -3 -3 -12 -1 -19 4 -10 -1 -12 -15 -8 -18 5 -21 1
-21 -31 0 -27 4 -36 18 -38 24 -2 54 1 72 8 13 4 13 6 0 14 -8 6 -26 10 -40
11 l-25 1 25 7 c32 9 43 61 12 61 -10 0 -21 -3 -25 -6z"/>
<path d="M4632 7351 c-19 -12 -1 -75 22 -79 30 -6 38 12 18 39 -11 13 -17 30
-15 37 5 14 -6 16 -25 3z"/>
<path d="M5110 7197 c0 -8 7 -17 15 -21 21 -8 19 -21 -5 -32 -20 -9 -20 -9 3
-36 29 -36 48 -24 57 35 6 41 4 46 -14 50 -12 2 -29 8 -38 12 -13 5 -18 3 -18
-8z"/>
<path d="M1206 7084 c-20 -19 -20 -28 -1 -44 13 -10 19 -10 35 5 26 23 26 55
1 55 -11 0 -27 -7 -35 -16z"/>
<path d="M1040 7049 c-6 -23 -10 -42 -8 -43 20 -13 62 -25 69 -21 18 11 9 61
-14 83 -13 12 -26 22 -30 22 -3 0 -11 -18 -17 -41z"/>
<path d="M962 6987 c-18 -21 -24 -64 -13 -86 9 -16 7 -25 -14 -47 -30 -32 -32
-60 -5 -67 28 -7 25 -26 -5 -37 -36 -14 -49 -55 -35 -105 7 -22 16 -45 22 -52
12 -15 -37 -83 -59 -83 -11 0 -13 -11 -8 -57 9 -75 -5 -110 -50 -129 -34 -14
-35 -17 -29 -49 4 -22 2 -41 -6 -50 -10 -12 -9 -15 8 -15 47 0 51 -7 31 -61
-13 -33 -24 -106 -33 -222 -9 -115 -21 -192 -35 -233 -18 -54 -19 -64 -6 -100
18 -51 18 -108 0 -219 -23 -142 -22 -145 31 -78 108 137 208 190 317 169 32
-6 41 -16 118 -149 143 -247 132 -223 117 -253 -7 -15 -18 -29 -23 -31 -6 -2
-25 26 -42 61 -52 105 -105 155 -180 169 -60 12 -93 -7 -185 -105 -80 -85 -89
-92 -107 -80 -20 12 -21 10 -21 -32 0 -25 4 -48 10 -51 6 -3 10 3 10 14 0 11
9 25 19 31 40 21 44 14 38 -69 -3 -44 -8 -84 -11 -89 -4 -7 -17 -6 -36 1 -25
10 -33 9 -40 -3 -15 -23 -12 -122 7 -205 16 -74 33 -99 33 -50 0 45 35 95 66
95 2 0 4 -10 4 -22 0 -13 4 -30 10 -38 8 -13 9 -13 13 0 68 218 108 300 158
321 36 14 89 1 128 -32 l24 -20 -51 -52 c-86 -88 -118 -197 -93 -319 14 -67
29 -68 60 -3 28 59 39 63 68 26 17 -22 33 -31 53 -31 34 0 42 23 34 95 -6 48
-5 50 24 61 23 9 33 22 47 63 9 29 25 57 35 63 17 11 17 13 -6 48 -35 53 -46
97 -33 142 5 21 13 38 17 38 4 0 27 -55 51 -123 78 -217 136 -309 217 -343 42
-18 138 -18 152 -1 22 26 44 118 63 252 48 350 64 410 129 475 48 48 62 118
29 151 -28 28 -41 13 -28 -35 11 -39 7 -66 -10 -66 -5 0 -11 9 -14 21 -5 19
-10 20 -46 14 -37 -6 -41 -5 -41 14 0 26 -14 26 -56 0 -34 -21 -34 -21 -34 0
0 24 -45 79 -56 68 -5 -4 -2 -22 5 -40 21 -52 23 -71 8 -91 -13 -18 -15 -18
-41 -1 -19 13 -26 24 -22 38 4 16 1 18 -22 12 -33 -9 -69 -10 -102 -4 -22 3
-25 0 -28 -26 -3 -35 -22 -85 -31 -85 -3 0 -11 8 -18 19 -8 12 -28 20 -59 24
-75 8 -102 50 -118 184 -6 48 -5 52 16 55 17 2 23 10 23 28 0 17 7 26 25 30
16 4 28 16 35 36 20 62 55 82 75 43 31 -57 39 -96 25 -123 l-14 -26 45 0 c31
0 44 4 44 14 0 8 11 28 25 44 28 33 31 52 13 70 -13 13 -4 16 40 12 22 -1 30
14 13 24 -5 3 -58 13 -117 21 -147 22 -219 42 -205 59 8 10 -3 17 -47 31 -31
9 -63 20 -69 22 -8 3 -13 -3 -13 -16 0 -17 -6 -21 -32 -22 -33 0 -33 0 -10
-16 27 -19 29 -63 4 -86 -27 -25 -32 -21 -32 26 0 24 -5 48 -12 55 -9 9 -7 16
10 32 29 28 28 43 -8 80 -16 17 -30 39 -30 49 0 21 -19 31 -56 31 -33 0 -64
17 -64 35 0 11 8 13 29 9 37 -8 64 7 90 49 17 28 57 57 78 57 3 0 3 -27 0 -60
l-5 -60 46 39 c26 21 56 48 66 60 19 21 19 21 -10 21 -47 0 -61 14 -44 44 24
46 48 65 72 59 22 -6 22 -5 -5 24 -30 32 -26 54 5 26 26 -23 54 -6 51 33 -3
41 -17 49 -51 29 -31 -19 -67 -14 -60 8 3 6 21 16 41 21 42 11 46 24 16 49
-29 26 -21 51 19 55 23 2 32 -1 32 -11 0 -9 21 -20 58 -30 31 -8 95 -29 142
-46 47 -17 100 -31 119 -31 32 0 33 1 19 18 -9 9 -17 23 -20 31 -2 8 -13 15
-24 17 -28 3 -87 27 -102 42 -7 6 -22 12 -31 12 -10 0 -24 7 -31 15 -7 8 -17
12 -22 9 -5 -3 -18 2 -29 12 -19 17 -20 17 -35 -4 -8 -12 -19 -22 -23 -22 -6
0 -41 63 -41 74 0 2 32 18 71 36 52 24 79 31 104 27 28 -5 34 -2 39 16 10 38
-30 47 -91 22 -41 -17 -79 -19 -88 -5 -14 22 -23 8 -18 -29 4 -28 1 -39 -10
-44 -10 -3 -17 1 -20 14 -3 10 -13 19 -24 19 -10 0 -30 6 -44 14 -22 11 -28
11 -47 -5 -12 -9 -30 -15 -39 -13 -21 5 -45 -38 -36 -62 7 -19 -33 -11 -97 19
-38 19 -45 26 -45 52 0 23 5 30 25 35 22 5 25 12 28 52 2 36 7 47 22 51 18 5
19 7 5 34 -19 36 -19 57 0 73 14 11 13 14 -5 27 -11 8 -20 25 -20 38 0 13 -7
31 -16 39 -19 19 -19 19 -32 3z m538 -2092 c0 -22 -4 -25 -35 -25 -41 0 -47
21 -12 38 35 17 47 14 47 -13z m128 8 c-2 -15 11 -21 77 -35 44 -9 82 -17 85
-18 3 -1 -5 -5 -17 -10 -27 -11 -183 17 -183 33 0 10 29 47 37 47 2 0 3 -8 1
-17z"/>
<path d="M1130 6957 c0 -22 31 -57 51 -57 15 0 19 7 19 35 0 33 -2 35 -35 35
-22 0 -35 -5 -35 -13z"/>
<path d="M1547 6603 c-4 -3 -7 -14 -7 -24 0 -12 6 -16 19 -12 11 3 21 -2 24
-11 7 -19 37 -22 37 -3 0 6 3 22 6 35 6 20 3 22 -33 22 -22 0 -43 -3 -46 -7z"/>
<path d="M2182 6588 c-9 -9 -6 -18 15 -40 31 -32 63 -37 63 -10 0 19 -39 62
-56 62 -6 0 -15 -5 -22 -12z"/>
<path d="M5435 6074 c-18 -13 -18 -15 2 -36 12 -13 29 -47 39 -77 22 -62 54
-101 85 -101 18 0 21 4 16 28 -10 49 -24 76 -74 138 -45 55 -51 60 -68 48z"/>
<path d="M1495 6061 c-4 -13 1 -30 12 -45 22 -31 38 -34 22 -4 -10 18 -8 24
12 39 19 15 20 19 7 19 -9 0 -23 3 -31 6 -10 3 -18 -2 -22 -15z"/>
<path d="M1265 6062 c-5 -4 -18 -17 -28 -29 -19 -21 -18 -22 15 -52 34 -31 55
-28 43 7 -4 13 -12 19 -21 15 -18 -7 -18 6 1 31 23 30 16 48 -10 28z"/>
<path d="M1922 5960 c-7 -12 -23 -20 -41 -20 -15 0 -36 -8 -45 -19 -16 -18
-15 -19 45 -17 55 1 63 4 64 21 2 11 6 28 10 38 10 24 -17 22 -33 -3z"/>
<path d="M2213 5849 c-68 -8 -142 -34 -130 -46 3 -2 14 0 26 6 16 9 22 8 29
-5 7 -13 13 -14 30 -5 11 6 51 11 89 11 46 0 76 5 91 16 50 34 15 40 -135 23z"/>
<path d="M2190 5750 c0 -6 20 -19 45 -30 25 -11 45 -23 45 -28 0 -5 -12 -19
-26 -33 -19 -18 -24 -30 -20 -51 6 -32 -8 -45 -30 -27 -12 10 -26 8 -74 -6
-33 -10 -60 -19 -60 -21 0 -2 5 -14 11 -28 10 -20 9 -30 -4 -50 -16 -24 -16
-26 12 -45 35 -25 45 -26 37 -6 -6 18 29 35 70 35 19 0 25 5 22 18 -4 18 -23
20 -73 7 -29 -8 -30 -8 -12 12 9 11 17 24 17 30 0 6 6 16 14 22 10 9 15 8 20
-4 3 -9 18 -15 41 -15 19 0 35 -4 35 -10 0 -5 -4 -10 -10 -10 -15 0 -12 -21 6
-42 16 -16 15 -18 -2 -24 -11 -3 -30 -11 -44 -17 l-25 -11 23 -4 c35 -6 113
40 150 87 34 45 44 105 21 128 -9 9 -5 14 15 19 29 7 56 39 56 66 0 22 -82 36
-123 20 -17 -6 -35 -8 -41 -4 -13 8 -78 32 -88 32 -5 0 -8 -5 -8 -10z"/>
<path d="M5566 5694 c-14 -37 1 -104 24 -104 5 0 12 16 16 36 10 54 -23 112
-40 68z"/>
<path d="M5585 5441 c1 -140 18 -169 30 -49 14 138 13 153 -10 156 -19 3 -20
-3 -20 -107z"/>
<path d="M5245 5371 c-3 -6 0 -11 7 -11 8 0 54 -23 103 -51 113 -65 115 -66
115 -41 0 29 -35 68 -77 85 -53 21 -139 31 -148 18z"/>
<path d="M3440 4971 c0 -19 47 -76 77 -94 18 -10 82 -31 142 -47 152 -40 195
-66 220 -132 9 -24 7 -29 -22 -47 -32 -19 -32 -19 -107 2 -108 29 -360 29
-559 -2 -157 -24 -163 -26 -237 -82 -74 -57 -122 -71 -213 -63 -79 7 -87 -3
-22 -25 58 -19 159 -12 291 19 149 36 248 39 330 10 l55 -19 41 45 c22 24 48
44 58 44 34 0 86 -30 144 -84 72 -66 118 -82 188 -66 61 14 139 56 169 92 18
22 32 28 62 28 47 0 77 15 50 26 -17 6 -16 8 3 21 28 20 25 27 -20 47 -56 25
-95 77 -131 178 -18 49 -34 88 -38 88 -3 0 -41 -7 -84 -15 -82 -16 -185 -19
-249 -9 -31 6 -39 12 -48 40 -7 19 -20 39 -30 44 -23 12 -70 13 -70 1z"/>
<path d="M5575 4934 c-16 -38 -20 -94 -7 -94 9 0 42 79 42 102 0 33 -20 28
-35 -8z"/>
<path d="M4908 4898 c-18 -6 -28 -17 -28 -30 0 -11 -13 -32 -30 -46 -33 -29
-36 -42 -18 -72 11 -17 10 -25 -2 -47 -24 -43 -80 -65 -164 -66 -71 0 -73 -1
-68 -24 3 -16 -4 -33 -20 -51 -30 -33 -38 -51 -47 -120 -8 -51 -7 -54 19 -67
30 -15 40 -33 40 -70 0 -35 23 -49 61 -36 48 17 69 14 69 -9 0 -33 74 -27 129
9 36 24 48 28 69 20 14 -5 84 -16 156 -25 72 -8 152 -21 177 -30 43 -14 119
-74 119 -93 0 -11 -31 -36 -52 -44 -10 -4 -18 -11 -18 -16 0 -7 9 -7 26 -1 37
15 74 12 74 -4 0 -9 7 -12 18 -10 9 3 43 1 74 -4 65 -10 102 1 73 22 -14 10
-15 18 -6 52 17 61 15 77 -11 69 -16 -6 -20 -4 -15 8 13 34 29 148 41 287 l12
145 -27 27 -26 27 -19 -22 c-11 -12 -20 -40 -22 -62 -1 -22 -4 -53 -5 -70 -1
-16 -8 -34 -15 -38 -6 -4 -28 -33 -47 -63 -32 -50 -38 -54 -72 -54 -63 1 -118
18 -227 70 -63 31 -124 53 -155 57 -28 3 -51 9 -51 14 0 4 14 19 30 33 33 27
54 31 232 46 139 11 170 24 186 77 6 21 29 56 51 77 31 30 38 43 30 53 -20 23
-49 14 -90 -27 -41 -41 -54 -46 -79 -30 -12 8 -9 15 18 43 45 46 43 67 -6 67
-22 0 -81 9 -133 20 -101 21 -207 25 -251 8z"/>
<path d="M1136 4512 c-3 -3 -6 -31 -6 -62 0 -123 59 -228 153 -275 41 -20 54
-31 50 -44 -2 -9 5 -28 16 -42 l20 -24 45 24 c25 13 46 27 46 31 0 16 -54 102
-67 107 -8 3 -19 1 -26 -6 -17 -17 -25 -13 -32 18 -3 16 -26 62 -51 102 -24
41 -47 91 -50 112 -4 21 -12 40 -18 41 -6 2 -25 8 -43 13 -17 6 -34 8 -37 5z"/>
<path d="M3350 4221 c-33 -7 -34 -8 -10 -14 105 -26 200 -35 200 -18 0 23
-130 44 -190 32z"/>
<path d="M5035 4037 c-30 -13 -30 -14 -8 -25 12 -7 40 -12 62 -12 52 0 91 -15
91 -36 0 -14 -8 -15 -57 -9 -32 4 -84 15 -116 25 -31 10 -65 16 -75 15 -61
-12 -72 -17 -72 -29 0 -20 63 -65 116 -83 32 -11 70 -14 129 -11 71 4 95 10
157 41 40 20 84 47 97 61 l24 26 -45 0 c-26 0 -75 9 -110 20 -86 27 -156 33
-193 17z"/>
<path d="M1375 3767 c-36 -54 -70 -72 -138 -72 -36 0 -82 8 -110 19 -27 10
-50 16 -52 14 -15 -15 182 -458 204 -458 15 0 111 219 131 295 22 88 25 133
10 187 -14 49 -21 52 -45 15z"/>
<path d="M1505 3713 c3 -16 12 -34 19 -41 11 -11 15 -8 24 17 9 27 8 32 -8 41
-32 17 -43 12 -35 -17z"/>
<path d="M5618 3626 c-14 -11 -16 -19 -8 -48 7 -25 6 -54 -4 -102 -8 -40 -11
-79 -6 -94 9 -32 11 -27 34 78 17 79 21 166 8 174 -4 2 -15 -1 -24 -8z"/>
<path d="M4710 3596 c0 -19 75 -149 96 -165 40 -31 64 -28 64 9 0 61 -43 111
-124 145 -20 9 -36 13 -36 11z"/>
<path d="M3425 3538 c-81 -55 -279 -150 -394 -187 -135 -45 -314 -79 -486 -91
-158 -12 -230 -8 -282 16 -31 14 -213 32 -213 21 0 -3 20 -75 45 -159 54 -187
118 -365 232 -650 48 -120 84 -221 80 -224 -4 -4 -32 3 -63 15 -31 12 -59 19
-62 17 -2 -3 14 -26 37 -52 81 -93 149 -264 122 -311 -9 -16 -10 -16 -11 -1 0
10 -9 22 -19 28 -46 24 -199 237 -264 367 -123 245 -311 755 -324 880 -6 59
-14 59 -43 3 -23 -45 -24 -71 -6 -122 8 -21 11 -38 9 -38 -3 0 -26 15 -52 34
-109 79 -183 97 -189 44 -2 -15 9 -56 23 -92 15 -37 25 -74 23 -83 -8 -42 -40
-23 -143 81 -58 58 -111 106 -119 106 -12 0 -12 -8 -1 -58 40 -169 133 -323
400 -662 80 -102 193 -255 252 -340 189 -275 252 -351 378 -458 419 -353 1086
-543 1504 -428 224 62 459 239 571 429 23 40 20 37 -60 -36 -147 -135 -342
-254 -513 -312 -155 -52 -412 -71 -542 -41 -114 28 -350 118 -422 162 -77 48
-164 135 -206 206 -49 84 -70 164 -70 271 -1 53 -3 97 -6 97 -2 0 -13 -8 -23
-17 -17 -15 -21 -15 -29 -3 -14 22 -6 96 10 92 7 -1 22 0 32 3 19 6 19 7 -1
35 -12 16 -26 54 -32 84 -10 45 -9 61 4 94 15 39 15 43 -7 89 -13 26 -35 107
-49 178 l-25 130 21 18 c12 10 29 15 39 12 21 -7 25 5 7 23 -15 15 -3 28 33
37 25 6 26 4 32 -39 10 -68 100 -338 115 -344 7 -2 18 0 24 6 8 8 3 29 -18 74
-24 54 -28 76 -29 153 l0 90 74 -3 c65 -2 77 0 98 20 54 50 235 28 394 -50
l78 -37 26 19 c15 10 45 21 68 23 36 4 46 1 69 -22 25 -25 30 -26 59 -16 18 6
60 11 94 11 60 0 63 -1 68 -27 13 -56 25 -61 57 -24 l28 33 71 -27 c43 -16 72
-33 76 -45 5 -15 16 -18 63 -17 58 1 157 -19 180 -36 20 -15 14 -25 -28 -43
-46 -20 -52 -41 -14 -50 27 -7 98 -1 126 11 13 5 21 -2 35 -29 12 -27 23 -36
41 -36 19 0 23 -4 17 -18 -4 -9 -9 -31 -12 -48 -4 -25 -12 -33 -53 -47 -62
-22 -103 -69 -95 -107 6 -27 4 -28 -102 -63 -215 -72 -364 -82 -551 -37 -46
11 -87 20 -92 20 -5 0 -12 -16 -16 -37 -9 -48 12 -87 87 -158 98 -93 224 -135
414 -138 93 -1 105 1 165 30 36 17 173 109 305 205 132 96 312 224 401 285
l160 112 156 198 c262 333 323 429 373 576 20 59 25 94 23 143 l-3 65 -55 -69
c-30 -39 -65 -90 -78 -115 l-23 -45 -82 -7 c-134 -10 -208 22 -308 137 -52 60
-102 98 -128 98 -10 0 -11 -4 -3 -12 6 -7 18 -42 27 -78 9 -35 21 -73 27 -83
8 -15 6 -18 -9 -15 -13 2 -24 -9 -38 -39 -17 -37 -24 -43 -51 -43 -48 0 -66
28 -64 97 1 32 2 63 1 69 -1 7 -29 13 -75 16 -56 2 -80 8 -96 23 -20 18 -23
18 -85 2 -102 -27 -196 -22 -415 24 -162 34 -216 41 -320 42 -116 2 -126 4
-143 24 -22 27 -76 67 -83 61 -11 -12 56 -109 115 -168 115 -114 264 -175 622
-256 112 -25 239 -57 282 -71 76 -23 79 -26 98 -69 22 -52 24 -80 8 -90 -6 -3
-48 -8 -93 -9 -44 -2 -142 -16 -216 -31 -182 -38 -354 -40 -417 -6 -33 17 -59
22 -116 22 -156 0 -338 53 -579 167 -76 36 -138 72 -138 79 0 21 44 132 80
204 41 82 114 190 182 271 29 34 66 77 81 96 16 18 27 33 25 33 -2 0 -30 -19
-63 -42z"/>
</g>
</svg>
